<?xml version="1.0" standalone="no"?><!DOCTYPE svg PUBLIC "-//W3C//DTD SVG 1.1//EN" "http://www.w3.org/Graphics/SVG/1.1/DTD/svg11.dtd"><svg t="1767144223831" class="icon" viewBox="0 0 1024 1024" version="1.1" xmlns="http://www.w3.org/2000/svg" p-id="5276" xmlns:xlink="http://www.w3.org/1999/xlink" width="200" height="200"><path d="M562.912889 235.502597c-66.869887 86.277115-73.550728 179.685925-31.938927 278.535725 12.296026 29.203061 28.393573 56.356785 47.134765 81.973506 52.145396 70.876342 76.071413 149.601648 66.603474 237.723167-0.1537 1.42429 0.840228 2.961293 2.244025 7.500576 92.056247-83.305575 119.343178-189.563732 119.773538-306.375978 6.445167 0 8.197351 4.94915 10.963957 8.125624q100.417545 117.252853 200.722375 234.55694c6.240233 7.244409 5.369265 11.834925 0.481594 18.96662-83.100641 121.310542-197.064308 195.865445-341.942232 219.883682-150.288176 24.899452-286.374442-11.517278-405.440959-106.391364C130.820293 829.738786 69.842252 724.361845 48.836541 597.671792c-25.032659-150.841497 10.830749-287.542565 106.12495-407.162403C235.213553 89.753703 340.529014 28.755168 467.208821 7.698224c150.821004-25.073646 287.03023 11.332837 407.346843 105.848289 43.138557 33.885798 76.850162 74.462683 84.811839 131.055143 12.726387 90.232336-39.367776 195.599031-147.880205 213.059388-115.070309 18.505519-197.474175-43.159051-214.965272-158.885148-7.85921-51.837996 0.573815-98.245247 39.767397-136.004292 2.807593-2.715372 7.172682-5.563952 4.098675-9.898301-2.285011-3.21746-6.322207-0.625048-9.601146 0.06148-127.581515 26.641389-255.142537 116.576572-284.581272 288.341806-27.204957 158.823667 40.433432 273.494355 160.411904 366.483051 11.865665 9.222019 23.803057 17.982938 31.006478 31.764734 9.580653 18.228858 9.65238 36.181056-0.625048 54.092267-2.274765 3.965468-5.318031 7.633783-6.875527 11.855418-2.233778 6.004559-3.832261 13.392422 1.690703 17.747264 5.707405 4.498296 13.320695 3.453134 19.468708-0.676281 7.70551-5.123344 13.320695-12.439479 18.96662-19.776109 27.389398-35.576501 29.98181-76.665721 28.690727-119.353424-2.049338-67.966283-27.850499-127.356088-64.779563-182.39105-34.71578-51.756022-56.817886-107.661953-59.758686-169.900338-3.258447-68.939718 21.374592-128.083603 68.376151-178.230894 6.260727-6.680841 11.845172-13.986729 17.737017-21.005711z" fill="#017359" p-id="5277"></path></svg>